<?xml version="1.0" standalone="no"?>
<!DOCTYPE svg PUBLIC "-//W3C//DTD SVG 20010904//EN"
 "http://www.w3.org/TR/2001/REC-SVG-20010904/DTD/svg10.dtd">
<svg version="1.0" xmlns="http://www.w3.org/2000/svg"
 width="50px" height="50px" viewBox="0 0 300.000000 300.000000"
 preserveAspectRatio="xMidYMid meet">
<metadata>
Created by potrace 1.10, written by Peter Selinger 2001-2011
</metadata>
<g transform="translate(0.000000,300.000000) scale(0.100000,-0.100000)"
fill="#080303" stroke="none">
<path d="M1729 2564 c-41 -31 -73 -59 -72 -64 2 -5 29 -44 62 -87 120 -159
501 -675 509 -690 8 -13 23 -5 90 45 l82 61 -38 48 c-57 73 -517 695 -533 721
-7 12 -16 22 -20 22 -3 0 -39 -25 -80 -56z m243 -209 c273 -366 373 -505 373
-517 0 -13 -80 -78 -96 -78 -5 0 -25 21 -45 48 -59 77 -289 388 -388 522 -50
69 -96 131 -103 138 -23 24 -14 41 39 76 29 20 53 34 54 33 1 -1 75 -101 166
-222z"/>
<path d="M1380 2233 c-30 -37 -56 -70 -58 -74 -2 -6 156 -140 639 -541 l117
-97 62 75 c35 42 59 79 54 83 -5 5 -170 142 -366 305 -196 163 -360 301 -363
306 -12 20 -31 7 -85 -57z m430 -272 c187 -156 340 -290 340 -296 0 -16 -62
-94 -75 -94 -12 -1 -13 0 -329 263 -348 288 -371 308 -374 323 -5 20 60 94 80
91 10 -2 171 -131 358 -287z"/>
<path d="M1110 1807 c-19 -45 -35 -85 -35 -90 0 -7 870 -417 885 -417 9 0 85
168 79 174 -3 3 -382 182 -584 276 -33 15 -113 53 -179 84 -65 31 -121 56
-125 56 -3 0 -22 -37 -41 -83z m290 -61 c102 -48 208 -98 235 -111 28 -13 121
-58 208 -99 86 -41 157 -80 157 -86 0 -15 -41 -99 -51 -106 -10 -6 -79 24
-359 156 -241 114 -307 145 -390 182 -91 41 -92 43 -74 86 8 21 22 47 30 59
17 27 1 32 244 -81z"/>
<path d="M975 1418 c-2 -13 -12 -54 -20 -92 -16 -72 -12 -85 23 -86 8 0 219
-43 469 -95 251 -53 457 -94 459 -93 7 7 42 184 37 191 -2 4 -12 7 -21 7 -9 0
-220 43 -469 95 -248 52 -456 95 -462 95 -6 0 -13 -10 -16 -22z m315 -68 c295
-61 566 -118 599 -126 22 -5 23 -8 16 -52 -9 -58 -21 -82 -42 -82 -16 0 -285
54 -423 85 -93 21 -450 95 -457 95 -8 0 4 80 17 114 7 19 15 26 28 22 9 -3
127 -28 262 -56z"/>
<path d="M525 795 l0 -395 890 0 890 0 0 395 0 395 -97 0 -98 0 0 -297 0 -298
-695 0 -695 0 0 298 0 297 -97 0 -98 0 0 -395z m173 89 c2 -238 5 -284 17
-294 22 -18 1380 -19 1398 -1 8 8 13 95 17 294 l5 282 70 0 69 0 8 -35 c10
-48 7 -660 -3 -687 l-9 -23 -854 0 c-804 0 -856 1 -865 18 -11 21 -9 702 2
720 6 9 29 12 75 10 l67 -3 3 -281z"/>
<path d="M920 898 l0 -98 495 0 495 0 0 98 0 97 -495 0 -495 0 0 -97z m949 63
c8 -5 11 -29 9 -67 l-3 -59 -462 -3 -463 -2 0 64 c0 53 3 65 18 68 33 7 889 6
901 -1z"/>
<path d="M1 142 c-1 -45 3 -71 9 -67 18 11 22 71 7 106 l-15 34 -1 -73z"/>
</g>
</svg>
